# xmcd CD database file
#
# Track frame offsets:
#	150
#	8627
#	13871
#	16936
#	47458
#	54377
#	58096
#	62016
#	84253
#	99350
#	105162
#	108764
#	143496
#	153771
#	162365
#	171756
#	191852
#
# Disc length: 2682 seconds
#
# Revision: 0
# Processed by: cddbd v1.5.1PL2 Copyright (c) Steve Scherf et al.
# Submitted via: CDex 1.51
#
DISCID=bf0a7811
DTITLE=Giorgio Gaslini - Schumann Reflections
DYEAR=1984
DGENRE=Jazz
TTITLE0=Von Fremden Landern Und Manschen
TTITLE1=Kuriose Geschichte
TTITLE2=Hasche-Mann
TTITLE3=Schumann Reflections -(I mov)
TTITLE4=Bittendes Kind
TTITLE5=Gluckes Genus
TTITLE6=Wichtige Begebenheit
TTITLE7=Schumann Reflections -(II mov)
TTITLE8=Traumerei
TTITLE9=Am Kamin
TTITLE10=Ritter Vom Steckenpferd
TTITLE11=Schumann Reflections -(III mov- Lullaby)
TTITLE12=Fast Zu Ernst
TTITLE13=Furchtenmachen
TTITLE14=Kind Im Einschlummern
TTITLE15=Schumann Reflections -(IV mov)
TTITLE16=Der Dichter Spricht
EXTD=YEAR: 1984
EXTT0=
EXTT1=
EXTT2=
EXTT3=
EXTT4=
EXTT5=
EXTT6=
EXTT7=
EXTT8=
EXTT9=
EXTT10=
EXTT11=
EXTT12=
EXTT13=
EXTT14=
EXTT15=
EXTT16=
PLAYORDER=
